<svg width="546" height="64" viewBox="0 0 546 64" fill="none" xmlns="http://www.w3.org/2000/svg">
<path d="M92.5909 12.8703C88.2426 12.8652 84.0185 14.3127 80.5964 16.9806V3.40063H73.0874V32.2457C73.0822 36.0844 74.2221 39.8384 76.363 43.0326C78.5039 46.2269 81.5495 48.7178 85.1145 50.1901C88.6794 51.6624 92.6034 52.05 96.3899 51.3039C100.176 50.5577 103.655 48.7113 106.386 45.9983C109.117 43.2853 110.977 39.8276 111.732 36.0629C112.486 32.2982 112.1 28.3955 110.623 24.8489C109.146 21.3022 106.645 18.271 103.435 16.1387C100.225 14.0064 96.4511 12.869 92.5909 12.8703V12.8703ZM92.5909 44.2C90.2172 44.2065 87.895 43.5125 85.9181 42.2059C83.9413 40.8992 82.3987 39.0386 81.4858 36.8597C80.5729 34.6807 80.3306 32.2814 80.7896 29.9654C81.2487 27.6494 82.3884 25.521 84.0646 23.8496C85.7407 22.1781 87.8778 21.0388 90.2054 20.5759C92.5331 20.1129 94.9464 20.3472 97.1401 21.249C99.3337 22.1509 101.209 23.6797 102.528 25.6419C103.848 27.6041 104.552 29.9116 104.552 32.2721C104.542 35.4242 103.278 38.4443 101.038 40.6738C98.7969 42.9034 95.7606 44.1614 92.5909 44.1736V44.2Z" fill="#14142B"/>
<path d="M155.507 34.42C155.602 33.6992 155.646 32.9728 155.64 32.2459C155.633 27.3774 153.782 22.6903 150.456 19.1175C147.131 15.5448 142.574 13.3485 137.694 12.9659C132.813 12.5834 127.967 14.0425 124.119 17.053C120.272 20.0635 117.706 24.4044 116.931 29.2115C116.157 34.0187 117.232 38.9395 119.941 42.9944C122.65 47.0493 126.796 49.9407 131.553 51.0932C136.309 52.2456 141.327 51.5745 145.609 49.2134C149.89 46.8523 153.12 42.9745 154.656 38.3519H146.43C145.188 40.4461 143.331 42.1117 141.109 43.1245C138.887 44.1374 136.406 44.4488 134 44.0168C131.595 43.5849 129.38 42.4303 127.654 40.7086C125.928 38.9868 124.774 36.7806 124.348 34.3869L155.507 34.42ZM136.143 20.318C138.47 20.3223 140.745 20.9976 142.694 22.262C144.642 23.5264 146.18 25.3256 147.121 27.4417H125.192C126.132 25.3302 127.666 23.5342 129.609 22.2702C131.552 21.0062 133.821 20.3282 136.143 20.318V20.318Z" fill="#14142B"/>
<path d="M199.053 34.4199C199.145 33.6988 199.189 32.9726 199.186 32.2458C199.185 27.3722 197.338 22.6778 194.013 19.0974C190.688 15.517 186.129 13.3132 181.243 12.9248C176.358 12.5363 171.505 13.9917 167.65 17.0012C163.795 20.0107 161.221 24.3535 160.441 29.165C159.661 33.9765 160.731 38.9038 163.44 42.9657C166.148 47.0277 170.295 49.9264 175.055 51.0847C179.816 52.2431 184.84 51.5761 189.129 49.2165C193.417 46.857 196.654 42.978 198.196 38.3518H189.969C188.728 40.446 186.871 42.1117 184.649 43.1245C182.427 44.1373 179.946 44.4487 177.54 44.0168C175.134 43.5848 172.919 42.4303 171.194 40.7085C169.468 38.9868 168.314 36.7806 167.888 34.3869L199.053 34.4199ZM179.676 20.3179C181.999 20.3261 184.27 21.0031 186.215 22.2673C188.16 23.5315 189.694 25.3286 190.634 27.4416H168.705C169.645 25.3266 171.182 23.528 173.129 22.2637C175.077 20.9994 177.351 20.3235 179.676 20.3179V20.3179Z" fill="#14142B"/>
<path d="M54.1155 14.9057C49.9756 10.6434 43.975 7.53086 37.2235 6.14313C28.6912 4.38533 20.1322 5.67394 14.3244 9.60585C14.1731 9.6998 14.0268 9.80126 13.8858 9.90983H13.8526C13.282 10.3072 12.7443 10.7491 12.2444 11.2315C11.9122 11.5355 11.5799 11.8394 11.3473 12.117L11.2676 12.2029C10.7957 12.6963 10.3646 13.2266 9.97844 13.7889L9.71263 14.1722C5.77206 19.9412 4.46961 28.4394 6.23058 36.9376C7.62606 43.6516 10.7559 49.6188 15.042 53.7358C18.6969 57.2514 22.8434 59.0951 26.9501 59.0951C27.8764 59.0951 28.8004 59.0021 29.7079 58.8175C36.3995 57.443 41.3435 51.2313 42.8453 42.4753C51.6568 40.9752 57.9032 36.0587 59.2721 29.4174C60.2556 24.5339 58.4415 19.353 54.1155 14.9057ZM30.4853 38.6029C29.6481 38.4311 28.8174 38.2262 27.9934 37.9949L38.207 27.8314C38.4396 28.6442 38.6456 29.4769 38.8184 30.3095C39.4399 33.2336 39.6457 36.2299 39.4297 39.2108C36.4343 39.4247 33.4236 39.2201 30.4853 38.6029ZM13.5469 28.4989C11.5533 25.6177 10.8091 22.5514 11.4005 19.6768C11.6457 18.4837 12.1146 17.3471 12.7827 16.3265L13.0352 15.9564C13.3606 15.5119 13.7112 15.086 14.0851 14.681C14.1981 14.562 14.3111 14.4431 14.4307 14.3308C14.5503 14.2184 14.6633 14.0995 14.7895 13.9871C15.2079 13.6011 15.6519 13.2434 16.1185 12.9166L16.298 12.791L16.3844 12.7382C17.4196 12.0622 18.5739 11.5869 19.7867 11.3372C20.4272 11.2052 21.0796 11.1388 21.7337 11.139C24.2281 11.2014 26.6448 12.0148 28.6646 13.4717L13.5469 28.4989ZM28.8972 55.2359C25.1626 56.0024 21.1556 54.575 17.6004 51.1321C13.8725 47.5306 11.1015 42.2506 9.8854 36.257C9.35668 33.7038 9.13362 31.0975 9.22089 28.4923C9.97417 29.9447 10.9025 31.3006 11.9853 32.5299C11.9991 32.5469 12.0147 32.5624 12.0318 32.5762L12.0717 32.629C12.6844 33.3241 13.3344 33.9859 14.0187 34.6115C14.9852 35.6928 16.1429 36.5887 17.4343 37.2548C19.4442 38.5855 21.5945 39.6935 23.8469 40.5589C25.7562 41.2919 27.7232 41.8665 29.7278 42.2771C32.1632 42.7787 34.6434 43.0333 37.1305 43.037C37.7086 43.037 38.2867 43.037 38.8582 42.9775C37.4694 49.6188 33.7681 54.2314 28.8972 55.2359V55.2359ZM55.5442 28.7301C54.5408 33.5674 49.9025 37.2482 43.2241 38.6425C43.3722 35.5867 43.1288 32.5245 42.4998 29.5297C42.0928 27.5686 41.5261 25.6437 40.8053 23.774C40.7816 23.6993 40.7528 23.6265 40.7189 23.5559C39.8666 21.3603 38.7794 19.2622 37.476 17.2979C36.8088 16.0177 35.9074 14.8725 34.818 13.921C34.1906 13.2409 33.525 12.5967 32.8244 11.9914L32.7846 11.9452L32.6716 11.8527C31.4419 10.7823 30.0851 9.86576 28.6314 9.12345C31.2535 9.0302 33.8774 9.25208 36.446 9.78428C42.4732 11.02 47.7827 13.7492 51.4043 17.4829C54.8531 21.0381 56.315 25.0229 55.5442 28.7301ZM9.37373 2.6011C9.27472 2.36924 9.22384 2.11987 9.22413 1.86797C9.22442 1.61607 9.27589 1.36682 9.37544 1.13519C9.47499 0.903553 9.62057 0.694304 9.80344 0.52C9.98632 0.345696 10.2027 0.209929 10.4397 0.120846C10.6766 0.0317629 10.9292 -0.00879959 11.1823 0.00159205C11.4354 0.0119837 11.6837 0.0731175 11.9125 0.181321C12.1412 0.289525 12.3457 0.442568 12.5135 0.63127C12.6813 0.819972 12.809 1.04044 12.889 1.27945L14.4041 5.28405C14.4916 5.51313 14.5329 5.75713 14.5255 6.00208C14.5181 6.24703 14.4622 6.48812 14.3609 6.71155C14.2597 6.93498 14.1151 7.13636 13.9356 7.30417C13.756 7.47197 13.5448 7.6029 13.3143 7.68946C13.1027 7.77237 12.8772 7.81496 12.6498 7.81501C12.2684 7.81495 11.896 7.69913 11.5826 7.48304C11.2691 7.26695 11.0294 6.96087 10.8955 6.6057L9.37373 2.6011ZM5.97806 14.4497C5.7506 14.4497 5.52518 14.4071 5.31355 14.3241L1.28659 12.8175C1.04625 12.7379 0.824548 12.6109 0.634792 12.444C0.445037 12.2771 0.291138 12.0739 0.182331 11.8464C0.0735231 11.6189 0.0120506 11.3719 0.00160094 11.1202C-0.00884871 10.8685 0.0319402 10.6173 0.12152 10.3817C0.211101 10.1461 0.347626 9.93088 0.522902 9.74902C0.698179 9.56716 0.908594 9.42239 1.14152 9.3234C1.37445 9.2244 1.62509 9.17322 1.8784 9.17293C2.1317 9.17264 2.38246 9.22324 2.61562 9.3217L6.64257 10.8284C7.05551 10.9823 7.40093 11.2756 7.61846 11.6571C7.83599 12.0385 7.9118 12.4839 7.83263 12.9153C7.75347 13.3467 7.52437 13.7367 7.18537 14.0172C6.84637 14.2977 6.41904 14.4508 5.97806 14.4497V14.4497Z" fill="#14142B"/>
<path d="M243.486 51.7083L256.867 16.6895H252.257L241.118 46.0105H240.99L232.923 20.9148H229.018L221.015 46.0105H220.887L209.876 16.6895H205.203L218.519 51.7083H223.576L230.875 28.4051H231.003L238.429 51.7083H243.486Z" fill="#14142B"/>
<path d="M278.509 52.5406C288.368 52.5406 296.882 44.346 296.882 34.1669C296.882 24.3719 288.688 15.7933 278.509 15.7933C268.586 15.7933 260.263 24.1158 260.263 34.423C260.263 44.154 268.586 52.5406 278.509 52.5406ZM278.573 48.5073C270.954 48.5073 264.744 42.0413 264.744 34.359C264.744 26.4205 270.89 19.8265 278.509 19.8265C286.255 19.8265 292.401 26.3565 292.401 33.9748C292.401 41.9773 286.447 48.5073 278.573 48.5073Z" fill="#14142B"/>
<path d="M308.167 51.7083V31.0299C308.167 25.3962 311.624 21.1709 318.09 20.5307H318.154V15.7933C312.521 16.1134 309.832 18.098 308.295 21.7471H308.167V16.6895H303.686V51.7083H308.167Z" fill="#14142B"/>
<path d="M352.538 51.7083L338.005 34.359L351.834 16.6895H346.072L329.747 38.0721H329.619V4.33374H325.137V51.7083H329.619V45.0502L335.253 37.88L346.776 51.7083H352.538Z" fill="#14142B"/>
<path d="M374.878 25.3322C374.878 19.7625 370.588 15.7933 365.339 15.7933C359.577 15.7933 355.352 19.8905 355.352 25.5243C355.352 31.5421 359.257 33.2706 365.403 35.5113C369.436 36.9838 371.613 38.8403 371.613 42.2334C371.613 46.2666 369.116 48.5073 365.083 48.5073C361.306 48.5073 358.873 46.0105 358.809 41.3371H354.327V41.5932C354.327 48.2512 359.065 52.5406 365.083 52.5406C371.805 52.5406 376.094 48.4433 376.094 42.0413C376.094 37.0478 374.43 33.6547 365.915 30.8379C361.626 29.4295 359.833 27.6369 359.833 25.0761C359.833 22.0672 362.202 19.8265 365.147 19.8265C368.028 19.8265 370.14 21.9391 370.396 25.3322H374.878Z" fill="#14142B"/>
<path d="M386.19 64.0001V45.5624H386.318C389.455 50.1078 394.512 52.5406 399.954 52.5406C410.709 52.5406 418.776 44.4101 418.776 34.1029C418.776 23.9238 410.581 15.7933 399.954 15.7933C394.384 15.7933 389.583 18.226 386.318 22.8354H386.19V16.6895H381.708V64.0001H386.19ZM414.294 34.2949C414.294 42.2974 408.277 48.5073 399.954 48.5073C392.016 48.5073 385.934 42.0413 385.934 34.2309C385.934 26.2285 392.336 19.8265 399.89 19.8265C408.405 19.8265 414.294 26.2285 414.294 34.2949Z" fill="#14142B"/>
<path d="M461.006 51.7083V16.6895H456.524V22.8354H456.396C453.579 18.4181 448.586 15.7933 442.76 15.7933C432.517 15.7933 423.938 23.6037 423.938 34.1029C423.938 44.6021 432.261 52.5406 442.76 52.5406C448.458 52.5406 453.515 49.9157 456.396 45.5624H456.524V51.7083H461.006ZM442.76 48.5073C434.502 48.5073 428.42 42.3614 428.42 34.2949C428.42 25.9724 434.63 19.8265 442.696 19.8265C450.635 19.8265 456.78 26.4205 456.78 34.2309C456.78 42.1053 450.571 48.5073 442.76 48.5073Z" fill="#14142B"/>
<path d="M498.881 41.4011C496.384 46.0746 491.839 48.5073 486.525 48.5073C478.395 48.5073 472.057 42.1694 472.057 34.1029C472.057 26.1644 478.459 19.8265 486.525 19.8265C491.583 19.8265 496.256 22.3873 498.881 27.2528H503.81C500.93 20.0826 494.079 15.7933 486.397 15.7933C476.026 15.7933 467.575 24.2439 467.575 33.8468C467.575 44.7942 475.962 52.5406 486.397 52.5406C494.528 52.5406 500.225 48.5073 503.81 41.4011H498.881Z" fill="#14142B"/>
<path d="M545.325 35.8314C545.325 35.3833 545.389 34.9351 545.389 34.487C545.389 24.82 537.514 15.7933 527.015 15.7933C517.22 15.7933 508.833 24.0518 508.833 34.2309C508.833 44.4741 517.156 52.5406 527.079 52.5406C534.569 52.5406 541.612 47.8031 544.3 40.2488H539.563C537.642 45.3704 532.457 48.5073 527.015 48.5073C520.229 48.5073 513.827 42.8096 513.443 35.8314H545.325ZM513.443 31.7982C514.659 24.564 520.485 19.8265 527.015 19.8265C533.929 19.8265 539.499 24.756 540.779 31.7982H513.443Z" fill="#14142B"/>
</svg>
